<svg width="172" height="172" viewBox="0 0 172 172" fill="none" xmlns="http://www.w3.org/2000/svg">
<rect y="36.2347" width="140" height="140" rx="32.3077" transform="rotate(-15 0 36.2347)" fill="url(#paint0_linear_2022_2877)"/>
<path d="M75.2154 49.417C76.9357 48.956 78.7598 49.0655 80.4127 49.729L113.834 63.1434C115.02 63.6194 116.079 64.3654 116.927 65.3214C117.775 66.2775 118.388 67.4186 118.718 68.6529L127.707 102.198C128.272 104.307 127.976 106.553 126.885 108.444C125.794 110.334 123.996 111.714 121.887 112.279L66.2285 127.193C64.1198 127.758 61.873 127.462 59.9825 126.37C58.0919 125.279 56.7122 123.481 56.1471 121.372L47.1587 87.8273C46.8279 86.593 46.7892 85.298 47.0453 84.0461C47.3015 82.7943 47.8459 81.6186 48.6349 80.6135L70.8713 52.2856C71.971 50.8847 73.4952 49.878 75.2154 49.417ZM81.5593 73.6324C82.3856 87.0927 80.7439 96.242 72.8003 106.125C77.1728 102.547 82.3584 99.8193 88.1706 98.2645C93.9826 96.7099 99.8387 96.4841 105.417 97.4002C93.5884 92.8065 87.5853 85.7017 81.5593 73.6324Z" fill="white"/>
<path d="M48.1465 41.1723L35.6638 44.517C27.6207 46.6722 22.8477 54.9394 25.0028 62.9824L28.3475 75.4652" stroke="white" stroke-width="3.23077"/>
<path d="M75.4619 143.115L62.9792 146.46C54.9362 148.615 46.6689 143.842 44.5138 135.799L41.1691 123.316" stroke="white" stroke-width="3.23077"/>
<path d="M95.997 28.3507L108.48 25.006C116.523 22.8509 124.79 27.624 126.945 35.667L130.29 48.1497" stroke="white" stroke-width="3.23077"/>
<path d="M123.312 130.294L135.795 126.949C143.838 124.794 148.611 116.527 146.456 108.483L143.111 96.0008" stroke="white" stroke-width="3.23077"/>
<defs>
<linearGradient id="paint0_linear_2022_2877" x1="70" y1="36.2347" x2="70" y2="176.235" gradientUnits="userSpaceOnUse">
<stop stop-color="#034112"/>
<stop offset="1" stop-color="#011606"/>
</linearGradient>
</defs>
</svg>
