<svg width="32" height="32" viewBox="0 0 32 32" fill="none" xmlns="http://www.w3.org/2000/svg">
<rect width="32" height="32" rx="8" fill="#F4F4F4"/>
<path d="M8.5 15.4165C8.5 11.2744 11.8579 7.9165 16 7.9165C20.1421 7.9165 23.5 11.2744 23.5 15.4165M8.5 15.4165H10.1667C11.0871 15.4165 11.8333 16.1627 11.8333 17.0832V18.7498C11.8333 19.6703 11.0871 20.4165 10.1667 20.4165M8.5 15.4165V19.5832C8.5 20.0434 8.8731 20.4165 9.33333 20.4165H10.1667M23.5 15.4165H21.8333C20.9129 15.4165 20.1667 16.1627 20.1667 17.0832V18.7498C20.1667 19.6703 20.9129 20.4165 21.8333 20.4165H22.6667C23.1269 20.4165 23.5 20.0434 23.5 19.5832V15.4165ZM10.1667 20.4165V21.2498C10.1667 22.1703 10.9129 22.9165 11.8333 22.9165H13.5M13.5 22.9165C13.5 23.6069 14.0596 24.1665 14.75 24.1665H15.5833C16.2737 24.1665 16.8333 23.6069 16.8333 22.9165C16.8333 22.2261 16.2737 21.6665 15.5833 21.6665H14.75C14.0596 21.6665 13.5 22.2261 13.5 22.9165Z" stroke="black" stroke-width="2" stroke-linecap="round"/>
</svg>
